<svg width="148" height="148" viewBox="0 0 148 148" fill="none" xmlns="http://www.w3.org/2000/svg">
<g clip-path="url(#clip0)">
<path d="M74 148C114.869 148 148 114.869 148 74C148 33.1309 114.869 0 74 0C33.1309 0 0 33.1309 0 74C0 114.869 33.1309 148 74 148Z" fill="#34C7AC"/>
<path d="M76.3234 147.96C116.117 146.732 148 114.091 148 73.9995C148 68.9806 147.498 64.0792 146.545 59.3406L88.6588 1.4541L49.7822 31.7386L33.7017 15.6583L38.4154 31.3172L66.0298 58.9316L50.1149 63.4175L32.3014 45.6041L38.0662 66.8137L54.0303 82.7778L36.3408 89.9526L32.5685 86.1804L33.9627 90.9169L29.9941 92.5264L46.6904 109.223L41.0152 112.854L76.3234 147.96Z" fill="#16856A"/>
<path d="M93.0035 67.766L88.6592 66.8145V82.0035L105.282 89.949C105.805 87.9004 107.355 86.2091 108.753 84.6698C109.379 83.9819 110.032 83.3514 110.703 82.7496L93.0035 67.766Z" fill="white"/>
<path d="M88.6592 73.972V82.0027L105.282 89.9482C105.805 87.8996 107.355 86.2083 108.753 84.669C109.379 83.9811 110.032 83.3506 110.703 82.7488L99.4753 73.2441L88.6592 73.972Z" fill="#E8EEEF"/>
<path d="M73.9995 0C70.7901 0 67.6286 0.204945 64.527 0.60125V84.3987C64.527 92.2887 58.4046 98.9868 50.5219 99.3198C50.2684 99.3305 50.0134 99.336 49.757 99.336C41.5326 99.336 34.6142 93.7589 32.5682 86.1811C32.1658 88.0834 31.9502 90.0545 31.9502 92.0762C31.9502 107.736 44.645 120.43 60.3043 120.43C75.964 120.43 88.6585 107.736 88.6585 92.0765V92.0762V1.45456C83.9199 0.502391 79.0185 0 73.9995 0Z" fill="#FFE13C"/>
<path d="M88.6585 73.2441H64.527V84.3979C64.527 92.2879 58.4046 98.986 50.5219 99.319C50.2684 99.3297 50.0134 99.3352 49.757 99.3352C41.5326 99.3352 34.6142 93.758 32.5682 86.1803C32.1658 88.0826 31.9502 90.0537 31.9502 92.0754C31.9502 107.735 44.645 120.43 60.3043 120.43C75.964 120.43 88.6585 107.735 88.6585 92.0757V92.0754V73.2441Z" fill="#FFBA31"/>
<path d="M73.9998 0C69.0014 0 64.1197 0.498922 59.399 1.44358V44.0936C59.399 50.7837 54.208 56.4626 47.524 56.745C47.309 56.754 47.0927 56.7586 46.8757 56.7586C39.9023 56.7586 34.0361 52.0298 32.3014 45.6048C31.9603 47.2178 31.7773 48.8891 31.7773 50.6033C31.7773 63.8808 42.5412 74.6443 55.8184 74.6443C69.0959 74.6443 79.8594 63.8808 79.8594 50.6036V50.6033V0.230383C77.9262 0.0789141 75.9721 0 73.9998 0Z" fill="#FFBA31"/>
<path d="M52.8647 3.06751V14.5898C52.8647 19.3209 49.1936 23.3371 44.4669 23.5369C44.3148 23.5432 44.1619 23.5464 44.0084 23.5464C39.077 23.5464 34.9284 20.2023 33.7016 15.6585C33.4603 16.7991 33.3311 17.9811 33.3311 19.1934C33.3311 28.5833 40.9429 36.1952 50.3328 36.1952C59.7227 36.1952 67.3346 28.5833 67.3346 19.1937V19.1934V0.301758C62.3523 0.746625 57.5131 1.68463 52.8647 3.06751Z" fill="#FFE13C"/>
<path d="M103.667 57.7206C103.575 57.6347 103.605 57.4775 103.577 57.3555L29.9941 92.5269L93.0031 78.7233L110.831 63.631C108.097 61.8495 108.097 61.8495 103.667 57.7206Z" fill="#D5D3E0"/>
<path d="M70.4123 73.207L29.9941 92.5265L93.0031 78.7229L99.4749 73.2443L70.4123 73.207Z" fill="#C0BECC"/>
<path d="M99.9668 53.2078C99.9668 44.8675 106.752 38.082 115.093 38.082C123.433 38.082 130.218 44.8672 130.218 53.2078C130.218 61.5484 123.433 68.3336 115.093 68.3336C106.752 68.3336 99.9668 61.5481 99.9668 53.2078ZM123.465 53.2078C123.465 48.5912 119.709 44.8354 115.092 44.8354C110.476 44.8354 106.72 48.5912 106.72 53.2078C106.72 57.8244 110.476 61.5802 115.092 61.5802C119.709 61.5802 123.465 57.8244 123.465 53.2078Z" fill="#0BEAB4"/>
<path d="M99.9668 93.2811C99.9668 84.9407 106.752 78.1553 115.093 78.1553C123.433 78.1553 130.218 84.9404 130.218 93.2811C130.218 101.621 123.433 108.407 115.093 108.407C106.752 108.407 99.9668 101.621 99.9668 93.2811ZM123.465 93.2811C123.465 88.6644 119.709 84.9086 115.092 84.9086C110.476 84.9086 106.72 88.6644 106.72 93.2811C106.72 97.8977 110.476 101.653 115.092 101.653C119.709 101.653 123.465 97.8974 123.465 93.2811Z" fill="#0BEAB4"/>
<path d="M87.912 76.9295C89.9464 76.9295 91.5956 75.2804 91.5956 73.246C91.5956 71.2117 89.9464 69.5625 87.912 69.5625C85.8777 69.5625 84.2285 71.2117 84.2285 73.246C84.2285 75.2804 85.8777 76.9295 87.912 76.9295Z" fill="white"/>
<path d="M91.5956 73.2441C91.5956 75.2786 89.9465 76.9277 87.912 76.9277C85.8776 76.9277 84.2285 75.2786 84.2285 73.2441H91.5956Z" fill="#D5ECF2"/>
</g>
<defs>
<clipPath id="clip0">
<rect width="148" height="148" fill="white"/>
</clipPath>
</defs>
</svg>
