<svg width="159" height="50" viewBox="0 0 159 50" fill="none" xmlns="http://www.w3.org/2000/svg">
<path d="M50.2824 32.2465C49.2675 32.2465 48.3202 32.0661 47.4405 31.7052C46.5835 31.3443 45.8956 30.803 45.3768 30.0813C44.8581 29.337 44.5987 28.4235 44.5987 27.3409C44.5987 25.8072 45.1174 24.578 46.1549 23.6533C47.215 22.706 48.8389 22.2323 51.0267 22.2323H56.1691V21.5218C56.1691 20.755 56.0451 20.146 55.797 19.6949C55.5714 19.2438 55.1429 18.9168 54.5114 18.7138C53.9024 18.5108 53.0002 18.4093 51.8048 18.4093C49.9103 18.4093 48.1397 18.6913 46.4933 19.2551V16.5147C47.215 16.2215 48.0946 15.9847 49.1321 15.8043C50.1696 15.6238 51.2861 15.5336 52.4815 15.5336C54.8271 15.5336 56.609 16.0073 57.8269 16.9546C59.0674 17.9018 59.6876 19.4468 59.6876 21.5895V31.9082H56.5413L56.3045 30.2843C55.6504 30.9158 54.8384 31.4007 53.8686 31.739C52.9213 32.0774 51.7259 32.2465 50.2824 32.2465ZM51.2635 29.6076C52.3687 29.6076 53.3273 29.4272 54.1392 29.0663C54.9738 28.6829 55.6504 28.1754 56.1691 27.5439V24.7359H51.0944C50.0118 24.7359 49.2224 24.9501 48.7262 25.3787C48.2525 25.7847 48.0157 26.4162 48.0157 27.2733C48.0157 28.1078 48.2976 28.7055 48.8615 29.0663C49.4253 29.4272 50.226 29.6076 51.2635 29.6076ZM63.7771 31.9082V15.8719H67.1602L67.3294 17.5635C68.1188 16.932 68.9872 16.4358 69.9344 16.0749C70.8817 15.7141 71.8967 15.5336 72.9793 15.5336C74.1296 15.5336 75.0205 15.7253 75.652 16.1088C76.3061 16.4696 76.8023 16.9771 77.1406 17.6312C77.8849 17.0222 78.742 16.526 79.7118 16.1426C80.6817 15.7366 81.8432 15.5336 83.1965 15.5336C85.046 15.5336 86.4105 16.0073 87.2901 16.9546C88.1698 17.9018 88.6096 19.3566 88.6096 21.3189V31.9082H84.9896V21.691C84.9896 20.4505 84.7302 19.5822 84.2115 19.086C83.6927 18.5898 82.8469 18.3417 81.6741 18.3417C80.9072 18.3417 80.1742 18.477 79.475 18.7476C78.7984 19.0183 78.212 19.4243 77.7158 19.9656C77.7834 20.2137 77.8285 20.4731 77.8511 20.7437C77.8736 21.0144 77.8849 21.3076 77.8849 21.6233V31.9082H74.4679V21.7248C74.4679 20.552 74.2649 19.6949 73.8589 19.1536C73.4529 18.6123 72.6861 18.3417 71.5584 18.3417C70.769 18.3417 70.0134 18.5334 69.2916 18.9168C68.5925 19.2777 67.9609 19.7175 67.3971 20.2362V31.9082H63.7771ZM92.7521 39.2159V15.8719H95.9323L96.1353 17.462C96.857 16.808 97.6465 16.323 98.5035 16.0073C99.3606 15.6915 100.376 15.5336 101.548 15.5336C103.849 15.5336 105.642 16.1652 106.928 17.4282C108.213 18.6687 108.856 20.7324 108.856 23.6194C108.856 26.5064 108.191 28.6716 106.86 30.1151C105.529 31.5361 103.714 32.2465 101.413 32.2465C99.4734 32.2465 97.8156 31.7954 96.4398 30.8932V39.2159H92.7521ZM100.466 29.4723C103.578 29.4723 105.135 27.5101 105.135 23.5856C105.135 21.691 104.785 20.349 104.086 19.5596C103.387 18.7476 102.214 18.3417 100.567 18.3417C98.9208 18.3417 97.545 18.9055 96.4398 20.0333V28.0514C96.9585 28.4799 97.5337 28.8295 98.1652 29.1002C98.8193 29.3483 99.5861 29.4723 100.466 29.4723ZM116.435 32.2465C115.127 32.2465 114.135 31.9308 113.458 31.2992C112.782 30.6452 112.443 29.5738 112.443 28.0852V9.10559H116.131V27.7469C116.131 28.3784 116.244 28.807 116.469 29.0325C116.695 29.258 117.033 29.3708 117.484 29.3708C118.026 29.3708 118.544 29.3032 119.04 29.1678V31.8405C118.612 31.9984 118.195 32.0999 117.789 32.145C117.405 32.2127 116.954 32.2465 116.435 32.2465ZM122.089 12.5226V9.47774H126.115V12.5226H122.089ZM122.394 31.9082V18.68H119.958L120.296 15.8719H126.081V31.9082H122.394ZM131.364 31.9082V18.7476H129.03V15.8719H131.364V13.9097C131.364 12.3083 131.804 11.0227 132.684 10.0529C133.586 9.06048 134.917 8.56428 136.676 8.56428C137.33 8.56428 137.928 8.62066 138.469 8.73344C139.01 8.82366 139.507 8.95898 139.958 9.13942V11.7783C139.259 11.5302 138.548 11.4061 137.826 11.4061C136.766 11.4061 136.033 11.5979 135.627 11.9813C135.221 12.3647 135.018 13.0188 135.018 13.9435V15.8719H139.213L139.044 18.7476H135.018V31.9082H131.364ZM144.51 37.8626C143.292 37.8626 142.254 37.7047 141.397 37.389V34.6486C141.781 34.7839 142.13 34.8741 142.446 34.9192C142.784 34.9643 143.123 34.9869 143.461 34.9869C144.16 34.9869 144.724 34.8741 145.153 34.6486C145.581 34.423 145.953 34.0622 146.269 33.566C146.607 33.0923 146.968 32.4721 147.352 31.7052L140.213 15.8719H144.036L149.179 27.7807L154.389 15.8719H158.178L151.648 30.9947C151.084 32.348 150.475 33.5321 149.821 34.5471C149.19 35.5846 148.445 36.3966 147.588 36.983C146.754 37.5694 145.728 37.8626 144.51 37.8626Z" fill="#212121"/>
<path d="M23.6716 23.9094L32.2204 38.3838C32.9684 39.6506 34.3576 40.4323 35.8536 40.4323C39.0861 40.4323 41.1164 37.0091 39.4868 34.2598L23.6716 7.46727C22.0421 4.71794 18.0081 4.71794 16.4052 7.46727L0.563387 34.2867C-1.0395 37.0361 0.964109 40.4593 4.22331 40.4593C5.71934 40.4593 7.1085 39.6776 7.85652 38.4107L16.4052 23.9363C18.0081 21.187 22.0688 21.187 23.6716 23.9094Z" fill="#1778F2"/>
<path d="M99.956 46.2718C100.314 46.1441 100.492 45.8836 100.492 45.4954C100.492 44.8977 100.048 44.5606 99.3277 44.5606H97.8158V48.2383H99.4912C99.8538 48.2383 100.145 48.1412 100.365 47.9522C100.584 47.7632 100.692 47.5027 100.692 47.181C100.692 46.6906 100.446 46.3892 99.956 46.2718ZM99.2102 45.0714C99.6035 45.0714 99.8181 45.2604 99.8181 45.5515C99.8181 45.8529 99.6035 46.0317 99.2102 46.0317H98.4849V45.0714H99.2102ZM98.4849 47.6815V46.5476H99.3226C99.7517 46.5476 100.007 46.7519 100.007 47.1146C100.007 47.4772 99.7517 47.6815 99.3226 47.6815H98.4849ZM103.186 44.5606L102.174 46.0317L101.158 44.5606H100.392L101.832 46.66V48.2383H102.516V46.6497L103.957 44.5606H103.186ZM105.356 46.7876C105.356 47.2576 105.504 47.6304 105.795 47.9012C106.086 48.1719 106.464 48.3047 106.919 48.3047C107.374 48.3047 107.752 48.1719 108.043 47.9012C108.334 47.6304 108.482 47.2576 108.482 46.7876V44.5606H107.803V46.6804C107.803 47.3086 107.491 47.6968 106.919 47.6968C106.347 47.6968 106.035 47.3086 106.035 46.6804V44.5606H105.356V46.7876ZM109.947 48.2383V45.7559L111.832 48.2383H112.415V44.5606H111.756V47.043L109.871 44.5606H109.289V48.2383H109.947ZM116.088 46.8745C115.945 47.4108 115.527 47.6968 114.98 47.6968C114.612 47.6968 114.316 47.5743 114.096 47.3291C113.877 47.0788 113.764 46.7723 113.764 46.3994C113.764 46.0266 113.872 45.715 114.086 45.4698C114.306 45.2246 114.597 45.1021 114.965 45.1021C115.491 45.1021 115.894 45.3677 116.053 45.9244L116.681 45.7712C116.589 45.3779 116.385 45.0663 116.068 44.8364C115.751 44.6066 115.378 44.4942 114.944 44.4942C114.393 44.4942 113.938 44.673 113.586 45.0356C113.233 45.3932 113.06 45.8478 113.06 46.3994C113.06 46.9511 113.238 47.4057 113.601 47.7684C113.964 48.1259 114.423 48.3047 114.98 48.3047C115.414 48.3047 115.787 48.1923 116.099 47.9625C116.415 47.7326 116.62 47.421 116.712 47.0277L116.088 46.8745ZM119.761 46.0828H117.989V44.5606H117.309V48.2383H117.989V46.6651H119.761V48.2383H120.441V44.5606L119.761 44.5606V46.0828ZM124.471 48.2383L122.938 44.5606H122.356L120.824 48.2383H121.529L121.85 47.4261L123.444 47.4261L123.766 48.2383H124.471ZM122.647 45.429L123.204 46.8336H122.09L122.647 45.429ZM125.531 48.2383V44.5606H124.852V48.2383H125.531ZM127.047 48.2383V45.7559L128.932 48.2383H129.514V44.5606H128.855V47.043L126.97 44.5606H126.388V48.2383H127.047ZM131.053 46.6651H132.652V46.0828H131.053V45.148H132.795V44.5606H130.373V48.2383H132.846V47.656H131.053V46.6651ZM133.376 44.5606V48.2383H134.704C135.287 48.2383 135.751 48.0697 136.104 47.7326C136.456 47.3955 136.63 46.9511 136.63 46.3994C136.63 45.8478 136.456 45.4034 136.104 45.0663C135.751 44.7292 135.287 44.5606 134.704 44.5606H133.376ZM134.056 47.656V45.1429H134.704C135.067 45.1429 135.363 45.2604 135.583 45.4954C135.808 45.7303 135.92 46.0317 135.92 46.3994C135.92 46.7672 135.808 47.0686 135.583 47.3035C135.363 47.5385 135.067 47.656 134.704 47.656H134.056ZM139.502 48.3047C139.9 48.3047 140.237 48.2127 140.513 48.0289C140.789 47.8399 140.927 47.5589 140.927 47.1758C140.927 46.5782 140.544 46.2207 139.869 46.1032L139.563 46.047C139.093 45.9653 138.858 45.7865 138.858 45.5158C138.858 45.2093 139.124 45.0612 139.486 45.0612C139.915 45.0612 140.176 45.2859 140.273 45.7354L140.876 45.6026C140.738 44.8467 140.206 44.4942 139.486 44.4942C139.103 44.4942 138.786 44.5862 138.531 44.7751C138.281 44.9641 138.153 45.2297 138.153 45.5822C138.153 46.1287 138.516 46.471 139.241 46.614L139.553 46.6702C139.982 46.7519 140.237 46.8847 140.237 47.2065C140.237 47.5487 139.941 47.7224 139.532 47.7224C139.037 47.7224 138.715 47.467 138.562 46.9511L137.964 47.0839C138.168 47.8961 138.679 48.3047 139.502 48.3047ZM143.405 44.5606L142.394 46.0317L141.377 44.5606H140.611L142.051 46.66V48.2383H142.736V46.6497L144.176 44.5606H143.405ZM145.338 48.3047C145.736 48.3047 146.073 48.2127 146.349 48.0289C146.625 47.8399 146.763 47.5589 146.763 47.1758C146.763 46.5782 146.38 46.2207 145.705 46.1032L145.399 46.047C144.929 45.9653 144.694 45.7865 144.694 45.5158C144.694 45.2093 144.96 45.0612 145.322 45.0612C145.751 45.0612 146.012 45.2859 146.109 45.7354L146.712 45.6026C146.574 44.8467 146.043 44.4942 145.322 44.4942C144.939 44.4942 144.623 44.5862 144.367 44.7751C144.117 44.9641 143.989 45.2297 143.989 45.5822C143.989 46.1287 144.352 46.471 145.077 46.614L145.389 46.6702C145.818 46.7519 146.073 46.8847 146.073 47.2065C146.073 47.5487 145.777 47.7224 145.368 47.7224C144.873 47.7224 144.551 47.467 144.398 46.9511L143.8 47.0839C144.004 47.8961 144.515 48.3047 145.338 48.3047ZM146.942 44.5606V45.1429H148.142V48.2383H148.822V45.1429H150.022V44.5606H146.942ZM151.09 46.6651H152.689V46.0828H151.09V45.148H152.832V44.5606H150.411V48.2383H152.883V47.656H151.09V46.6651ZM156.623 44.5606L155.546 47.3035L154.458 44.5606H153.886L153.278 48.2383H153.962L154.33 45.8529L155.255 48.2383H155.832L156.761 45.8529L157.124 48.2383H157.803L157.201 44.5606H156.623Z" fill="#212121"/>
<rect x="92.5938" y="44.8242" width="3.29607" height="3.29607" fill="#1778F2"/>
</svg>
