<svg width="184" height="152" viewBox="0 0 184 152" fill="none" xmlns="http://www.w3.org/2000/svg">
<circle cx="102" cy="90" r="44" fill="#2D9D82" fill-opacity="0.06"/>
<path d="M106.804 96.6506V102.804C106.804 103.229 106.636 103.636 106.335 103.936C106.035 104.236 105.628 104.404 105.204 104.404H89.2041C88.7798 104.404 88.3728 104.236 88.0728 103.936C87.7727 103.636 87.6041 103.229 87.6041 102.804V77.2042C87.6041 76.7799 87.7727 76.3729 88.0728 76.0729C88.3728 75.7728 88.7798 75.6042 89.2041 75.6042H105.204C105.628 75.6042 106.035 75.7728 106.335 76.0729C106.636 76.3729 106.804 76.7799 106.804 77.2042V83.3578" stroke="#1778F2" stroke-width="3" stroke-linecap="round" stroke-linejoin="round"/>
<path d="M116.403 90H97.2031" stroke="#1778F2" stroke-width="3" stroke-linecap="round" stroke-linejoin="round"/>
<path d="M102.003 85.2085L97.2031 90.0085L102.003 94.8085" stroke="#1778F2" stroke-width="3" stroke-linecap="round" stroke-linejoin="round"/>
<circle cx="176.5" cy="63.5" r="7.5" fill="#2D9D82" fill-opacity="0.06"/>
<circle cx="7.5" cy="78.5" r="7.5" fill="#2D9D82" fill-opacity="0.06"/>
<circle cx="155.5" cy="144.5" r="7.5" fill="#2D9D82" fill-opacity="0.06"/>
<circle cx="29.5" cy="116.5" r="4.5" fill="#2D9D82" fill-opacity="0.06"/>
<circle cx="148.5" cy="14.5" r="2.5" fill="#2D9D82" fill-opacity="0.06"/>
<circle cx="85.5" cy="2.5" r="2.5" fill="#2D9D82" fill-opacity="0.06"/>
<circle cx="178" cy="36" r="4" fill="#2D9D82" fill-opacity="0.06"/>
<circle cx="106" cy="16" r="4" fill="#2D9D82" fill-opacity="0.06"/>
</svg>
